<svg width="21" height="21" viewBox="0 0 21 21" fill="none" xmlns="http://www.w3.org/2000/svg">
<path d="M19.4202 0.903046H1.02021C0.577715 0.903046 0.220215 1.26055 0.220215 1.70305V20.103C0.220215 20.5455 0.577715 20.903 1.02021 20.903H19.4202C19.8627 20.903 20.2202 20.5455 20.2202 20.103V1.70305C20.2202 1.26055 19.8627 0.903046 19.4202 0.903046ZM18.6202 19.303H14.0177V13.158H16.6177L17.0077 10.1405H14.0177V8.21305C14.0177 7.33805 14.2602 6.74305 15.5127 6.74305H17.1102V4.04305C16.8327 4.00555 15.8852 3.92305 14.7802 3.92305C12.4752 3.92305 10.8977 5.33055 10.8977 7.91305V10.138H8.29272V13.1555H10.9002V19.303H1.82021V2.50305H18.6202V19.303Z" fill="white"/>
</svg>
