<svg width="21" height="21" viewBox="0 0 21 21" fill="none" xmlns="http://www.w3.org/2000/svg">
<path d="M10.2148 1.39804C12.247 1.39804 12.9411 1.40564 13.6074 1.42929L14.3135 1.45859H14.3252C15.0988 1.47445 15.8645 1.62167 16.5889 1.89316C17.1865 2.12511 17.7293 2.47864 18.1826 2.93124C18.6369 3.38484 18.9915 3.92799 19.2236 4.52597C19.4991 5.25685 19.6449 6.03032 19.6553 6.81113V6.82187L19.6562 6.83359C19.7175 7.8779 19.7175 8.20697 19.7197 10.9185C19.7197 12.9486 19.7115 13.6417 19.6875 14.3072L19.6582 15.0113V15.024C19.6427 15.7966 19.4974 16.5574 19.2266 17.2789C18.9941 17.8771 18.6391 18.4208 18.1846 18.8746C17.73 19.3284 17.1834 19.6824 16.584 19.9146C15.8617 20.1844 15.0992 20.3311 14.3281 20.3463H14.3184L14.3086 20.3473C13.265 20.4084 12.932 20.4078 10.2158 20.4078C7.50637 20.4078 7.17568 20.3935 6.11621 20.3463H6.11035C5.33547 20.3208 4.5705 20.1637 3.84863 19.8814L3.84668 19.8805L3.62402 19.7877C3.11217 19.5586 2.64576 19.2381 2.24805 18.8414C1.85018 18.4445 1.52867 17.9784 1.29883 17.4674L1.20605 17.2457C0.935136 16.5229 0.789908 15.7622 0.774414 14.9908L0.773438 14.981V14.9713L0.738281 14.274C0.712431 13.6138 0.711914 12.919 0.711914 10.8853C0.711914 8.18001 0.72613 7.84941 0.773438 6.7916L0.774414 6.7789C0.789023 6.00917 0.934937 5.24767 1.20605 4.52695C1.43805 3.92862 1.7926 3.38502 2.24707 2.93124C2.70041 2.47861 3.2431 2.12493 3.84082 1.89316C4.5649 1.62179 5.33024 1.47456 6.10352 1.45859H6.12109C7.1652 1.39855 7.49851 1.39804 10.2148 1.39804ZM10.208 5.25156C7.0951 5.25164 4.57143 7.76956 4.57129 10.8795C4.57129 13.9895 7.09502 16.5083 10.208 16.5084C11.7026 16.5084 13.1363 15.9154 14.1934 14.86C15.2505 13.8045 15.8447 12.3725 15.8447 10.8795C15.8447 9.38665 15.2503 7.95539 14.1934 6.89999C13.1363 5.84455 11.7026 5.25156 10.208 5.25156ZM15.5488 3.86679C15.3261 3.86679 15.1053 3.91056 14.8994 3.9957C14.6936 4.08083 14.5063 4.20551 14.3486 4.36288C14.1911 4.52024 14.0658 4.70702 13.9805 4.91269C13.8951 5.1184 13.8516 5.3394 13.8516 5.5621C13.8518 6.49955 14.6101 7.25729 15.5488 7.25742C16.4855 7.25742 17.2458 6.49963 17.2461 5.5621C17.2461 5.33936 17.2016 5.11843 17.1162 4.91269C17.0309 4.70696 16.9057 4.52027 16.748 4.36288C16.5904 4.2055 16.4031 4.08083 16.1973 3.9957C15.9916 3.91067 15.7714 3.86683 15.5488 3.86679Z" fill="white" stroke="white"/>
<path d="M10.2085 8.04843C11.7755 8.04866 13.0444 9.31734 13.0444 10.8805C13.0443 12.4435 11.7754 13.7113 10.2085 13.7115C8.64137 13.7115 7.37173 12.4436 7.37158 10.8805C7.37158 9.3172 8.64128 8.04843 10.2085 8.04843Z" fill="white" stroke="white"/>
</svg>
