<svg width="28" height="25" viewBox="0 0 28 25" fill="none" xmlns="http://www.w3.org/2000/svg">
<path d="M10.4898 0.143408C10.5849 0.198237 10.6679 0.270568 10.7339 0.356269C10.8 0.44197 10.8478 0.539362 10.8748 0.642882C10.9017 0.746401 10.9072 0.85402 10.891 0.95959C10.8747 1.06516 10.8371 1.16662 10.7801 1.25816L6.48371 8.15303H22.0661L17.768 1.25816C17.653 1.07327 17.619 0.851953 17.6734 0.642897C17.7278 0.43384 17.8663 0.254169 18.0583 0.143408C18.2503 0.0326466 18.4801 -0.00013102 18.6972 0.0522854C18.9143 0.104702 19.1009 0.238019 19.2159 0.422908L24.0337 8.15303H26.0874C26.535 8.15303 26.9642 8.32424 27.2806 8.62899C27.5971 8.93373 27.7749 9.34706 27.7749 9.77804V11.403C27.7749 11.834 27.5971 12.2473 27.2806 12.5521C26.9642 12.8568 26.535 13.028 26.0874 13.028V20.3405C26.0874 21.418 25.6429 22.4513 24.8518 23.2132C24.0606 23.975 22.9875 24.403 21.8687 24.403H6.68115C5.56227 24.403 4.48921 23.975 3.69805 23.2132C2.90688 22.4513 2.4624 21.418 2.4624 20.3405V13.028C2.01485 13.028 1.58563 12.8568 1.26916 12.5521C0.952692 12.2473 0.774902 11.834 0.774902 11.403V9.77804C0.774902 9.34706 0.952692 8.93373 1.26916 8.62899C1.58563 8.32424 2.01485 8.15303 2.4624 8.15303H4.51609L9.33053 0.422908C9.38747 0.331346 9.46258 0.251482 9.55158 0.18788C9.64057 0.124277 9.74171 0.0781818 9.84921 0.0522265C9.95671 0.0262712 10.0685 0.0209647 10.1781 0.0366098C10.2877 0.0522549 10.3931 0.0885451 10.4882 0.143408H10.4898ZM4.1499 13.028V20.3405C4.1499 20.987 4.41659 21.607 4.89129 22.0641C5.36599 22.5212 6.00982 22.778 6.68115 22.778H21.8687C22.54 22.778 23.1838 22.5212 23.6585 22.0641C24.1332 21.607 24.3999 20.987 24.3999 20.3405V13.028H4.1499ZM2.4624 9.77804V11.403H26.0874V9.77804H2.4624ZM7.5249 14.653C7.74868 14.653 7.96329 14.7386 8.12152 14.891C8.27976 15.0434 8.36865 15.25 8.36865 15.4655V20.3405C8.36865 20.556 8.27976 20.7627 8.12152 20.9151C7.96329 21.0674 7.74868 21.153 7.5249 21.153C7.30113 21.153 7.08651 21.0674 6.92828 20.9151C6.77005 20.7627 6.68115 20.556 6.68115 20.3405V15.4655C6.68115 15.25 6.77005 15.0434 6.92828 14.891C7.08651 14.7386 7.30113 14.653 7.5249 14.653ZM10.8999 14.653C11.1237 14.653 11.3383 14.7386 11.4965 14.891C11.6548 15.0434 11.7437 15.25 11.7437 15.4655V20.3405C11.7437 20.556 11.6548 20.7627 11.4965 20.9151C11.3383 21.0674 11.1237 21.153 10.8999 21.153C10.6761 21.153 10.4615 21.0674 10.3033 20.9151C10.145 20.7627 10.0562 20.556 10.0562 20.3405V15.4655C10.0562 15.25 10.145 15.0434 10.3033 14.891C10.4615 14.7386 10.6761 14.653 10.8999 14.653ZM14.2749 14.653C14.4987 14.653 14.7133 14.7386 14.8715 14.891C15.0298 15.0434 15.1187 15.25 15.1187 15.4655V20.3405C15.1187 20.556 15.0298 20.7627 14.8715 20.9151C14.7133 21.0674 14.4987 21.153 14.2749 21.153C14.0511 21.153 13.8365 21.0674 13.6783 20.9151C13.52 20.7627 13.4312 20.556 13.4312 20.3405V15.4655C13.4312 15.25 13.52 15.0434 13.6783 14.891C13.8365 14.7386 14.0511 14.653 14.2749 14.653ZM17.6499 14.653C17.8737 14.653 18.0883 14.7386 18.2465 14.891C18.4048 15.0434 18.4937 15.25 18.4937 15.4655V20.3405C18.4937 20.556 18.4048 20.7627 18.2465 20.9151C18.0883 21.0674 17.8737 21.153 17.6499 21.153C17.4261 21.153 17.2115 21.0674 17.0533 20.9151C16.895 20.7627 16.8062 20.556 16.8062 20.3405V15.4655C16.8062 15.25 16.895 15.0434 17.0533 14.891C17.2115 14.7386 17.4261 14.653 17.6499 14.653ZM21.0249 14.653C21.2487 14.653 21.4633 14.7386 21.6215 14.891C21.7798 15.0434 21.8687 15.25 21.8687 15.4655V20.3405C21.8687 20.556 21.7798 20.7627 21.6215 20.9151C21.4633 21.0674 21.2487 21.153 21.0249 21.153C20.8011 21.153 20.5865 21.0674 20.4283 20.9151C20.27 20.7627 20.1812 20.556 20.1812 20.3405V15.4655C20.1812 15.25 20.27 15.0434 20.4283 14.891C20.5865 14.7386 20.8011 14.653 21.0249 14.653Z" fill="white"/>
</svg>
