<svg width="47" height="46" viewBox="0 0 47 46" fill="none" xmlns="http://www.w3.org/2000/svg">
<mask id="path-1-inside-1_8_23" fill="white">
<path d="M44.857 4.78057L44.7813 4.73324L35.1752 0L24.807 13.8234L29.5781 20.1849C29.4339 22.5781 28.4199 24.8361 26.727 26.5338C25.0341 28.2316 22.779 29.2519 20.3862 29.4029L20.3578 29.4053L13.9963 24.6341L0.172852 35.0023L4.90609 44.6084L4.95342 44.6842C5.45278 45.4793 6.3237 46 7.31768 46H9.805C29.8905 46 46.1729 29.7177 46.1729 9.63214V7.15429V7.14483C46.1729 6.15085 45.6522 5.27993 44.8688 4.78767L44.857 4.78057ZM42.6229 9.63214C42.6229 27.7273 27.9002 42.4501 9.805 42.4501H7.7981L4.6576 36.0744L13.9963 29.0716L19.1957 32.9718H19.7874C23.3282 32.9674 26.7227 31.559 29.2267 29.0555C31.7306 26.552 33.1396 23.1577 33.1446 19.6169V19.0253L29.2444 13.8258L36.2472 4.48711L42.6229 7.62762V9.63214Z"/>
</mask>
<path d="M44.857 4.78057L44.7813 4.73324L35.1752 0L24.807 13.8234L29.5781 20.1849C29.4339 22.5781 28.4199 24.8361 26.727 26.5338C25.0341 28.2316 22.779 29.2519 20.3862 29.4029L20.3578 29.4053L13.9963 24.6341L0.172852 35.0023L4.90609 44.6084L4.95342 44.6842C5.45278 45.4793 6.3237 46 7.31768 46H9.805C29.8905 46 46.1729 29.7177 46.1729 9.63214V7.15429V7.14483C46.1729 6.15085 45.6522 5.27993 44.8688 4.78767L44.857 4.78057ZM42.6229 9.63214C42.6229 27.7273 27.9002 42.4501 9.805 42.4501H7.7981L4.6576 36.0744L13.9963 29.0716L19.1957 32.9718H19.7874C23.3282 32.9674 26.7227 31.559 29.2267 29.0555C31.7306 26.552 33.1396 23.1577 33.1446 19.6169V19.0253L29.2444 13.8258L36.2472 4.48711L42.6229 7.62762V9.63214Z" fill="black"/>
<path d="M44.857 4.78057L2.98673 71.7722L3.6001 72.1556L4.22039 72.5276L44.857 4.78057ZM44.7813 4.73324L86.6516 -62.2584L83.2727 -64.3702L79.6985 -66.1313L44.7813 4.73324ZM35.1752 0L70.0924 -70.8646L11.3018 -99.8326L-28.0235 -47.4017L35.1752 0ZM24.807 13.8234L-38.3917 -33.5783L-73.944 13.8221L-38.393 61.2234L24.807 13.8234ZM29.5781 20.1849L108.435 24.9359L110.179 -4.01351L92.7781 -27.2151L29.5781 20.1849ZM20.3862 29.4029L15.4121 -49.4404L14.6172 -49.3902L13.8235 -49.3241L20.3862 29.4029ZM20.3578 29.4053L-27.0423 92.6052L-3.01271 110.627L26.9204 108.132L20.3578 29.4053ZM13.9963 24.6341L61.3963 -38.5658L13.9949 -74.1169L-33.4055 -38.5645L13.9963 24.6341ZM0.172852 35.0023L-47.2289 -28.1964L-99.6597 11.129L-70.6917 69.9196L0.172852 35.0023ZM4.90609 44.6084L-65.9585 79.5257L-64.1974 83.0999L-62.0855 86.4787L4.90609 44.6084ZM4.95342 44.6842L-62.0382 86.5544L-61.9936 86.6258L-61.9488 86.6972L4.95342 44.6842ZM44.8688 4.78767L86.9021 -62.1018L86.2082 -62.5378L85.5055 -62.9594L44.8688 4.78767ZM7.7981 42.4501L-63.0708 77.3584L-41.3524 121.45H7.7981V42.4501ZM4.6576 36.0744L-42.7373 -27.1295L-95.1715 12.1895L-66.2113 70.9827L4.6576 36.0744ZM13.9963 29.0716L61.4009 -34.125L14.0039 -69.6781L-33.3986 -34.1323L13.9963 29.0716ZM19.1957 32.9718L-28.2089 96.1683L-7.14079 111.972H19.1957V32.9718ZM19.7874 32.9718V111.972H19.8363L19.8852 111.972L19.7874 32.9718ZM33.1446 19.6169L112.145 19.7287L112.145 19.6728V19.6169H33.1446ZM33.1446 19.0253H112.145V-7.31126L96.3412 -28.3793L33.1446 19.0253ZM29.2444 13.8258L-33.9594 -33.5691L-69.5053 13.8334L-33.9521 61.2304L29.2444 13.8258ZM36.2472 4.48711L71.1556 -66.3818L12.3624 -95.342L-26.9566 -42.9078L36.2472 4.48711ZM42.6229 7.62762H121.623V-41.5228L77.5313 -63.2413L42.6229 7.62762ZM86.7273 -62.2111L86.6516 -62.2584L2.911 71.7249L2.98673 71.7722L86.7273 -62.2111ZM79.6985 -66.1313L70.0924 -70.8646L0.25791 70.8646L9.86402 75.5978L79.6985 -66.1313ZM-28.0235 -47.4017L-38.3917 -33.5783L88.0057 61.2252L98.3739 47.4017L-28.0235 -47.4017ZM-38.393 61.2234L-33.6219 67.5849L92.7781 -27.2151L88.007 -33.5765L-38.393 61.2234ZM-49.2789 15.4339C-48.2641 -1.40906 -41.1279 -17.3003 -29.2134 -29.2486L82.6674 82.3162C97.9678 66.9725 107.132 46.5653 108.435 24.9359L-49.2789 15.4339ZM-29.2134 -29.2486C-17.2989 -41.1968 -1.42792 -48.378 15.4121 -49.4404L25.3602 108.246C46.9858 106.882 67.367 97.6599 82.6674 82.3162L-29.2134 -29.2486ZM13.8235 -49.3241L13.7951 -49.3217L26.9204 108.132L26.9488 108.13L13.8235 -49.3241ZM67.7578 -33.7947L61.3963 -38.5658L-33.4037 87.8341L-27.0423 92.6052L67.7578 -33.7947ZM-33.4055 -38.5645L-47.2289 -28.1964L47.5746 98.201L61.398 87.8328L-33.4055 -38.5645ZM-70.6917 69.9196L-65.9585 79.5257L75.7707 9.69118L71.0374 0.085071L-70.6917 69.9196ZM-62.0855 86.4787L-62.0382 86.5544L71.9451 2.81388L71.8977 2.73815L-62.0855 86.4787ZM-61.9488 86.6972C-47.7248 109.348 -22.1979 125 7.31768 125V-33C34.8453 -33 58.6303 -18.3891 71.8557 2.67116L-61.9488 86.6972ZM7.31768 125H9.805V-33H7.31768V125ZM9.805 125C73.521 125 125.173 73.3481 125.173 9.63214H-32.8271C-32.8271 -13.9128 -13.74 -33 9.805 -33V125ZM125.173 9.63214V7.15429H-32.8271V9.63214H125.173ZM125.173 7.15429V7.14483H-32.8271V7.15429H125.173ZM125.173 7.14483C125.173 -22.164 109.704 -47.7733 86.9021 -62.1018L2.83557 71.6772C-18.3994 58.3331 -32.8271 34.4657 -32.8271 7.14483H125.173ZM85.5055 -62.9594L85.4936 -62.9665L4.22039 72.5276L4.23223 72.5347L85.5055 -62.9594ZM-36.3771 9.63214C-36.3771 -15.9032 -15.7303 -36.5499 9.805 -36.5499V121.45C71.5307 121.45 121.623 71.3578 121.623 9.63214H-36.3771ZM9.805 -36.5499H7.7981V121.45H9.805V-36.5499ZM78.6671 7.54173L75.5265 1.16605L-66.2113 70.9827L-63.0708 77.3584L78.6671 7.54173ZM52.0525 99.2782L61.3912 92.2754L-33.3986 -34.1323L-42.7373 -27.1295L52.0525 99.2782ZM-33.4083 92.2681L-28.2089 96.1683L66.6004 -30.2248L61.4009 -34.125L-33.4083 92.2681ZM19.1957 111.972H19.7874V-46.0282H19.1957V111.972ZM19.8852 111.972C44.3418 111.941 67.7882 102.214 85.0832 84.9219L-26.6298 -26.8109C-14.3427 -39.0958 2.31463 -46.0067 19.6896 -46.0282L19.8852 111.972ZM85.0832 84.9219C102.378 67.63 112.11 44.1852 112.145 19.7287L-45.8553 19.5051C-45.8307 2.1302 -38.9169 -14.526 -26.6298 -26.8109L85.0832 84.9219ZM112.145 19.6169V19.0253H-45.8554V19.6169H112.145ZM96.3412 -28.3793L92.441 -33.5788L-33.9521 61.2304L-30.052 66.4298L96.3412 -28.3793ZM92.4483 61.2207L99.4511 51.882L-26.9566 -42.9078L-33.9594 -33.5691L92.4483 61.2207ZM1.3389 75.3561L7.71457 78.4966L77.5313 -63.2413L71.1556 -66.3818L1.3389 75.3561ZM-36.3771 7.62762V9.63214H121.623V7.62762H-36.3771Z" fill="black" mask="url(#path-1-inside-1_8_23)"/>
</svg>
