<svg width="53" height="42" viewBox="0 0 53 42" fill="none" xmlns="http://www.w3.org/2000/svg">
<path d="M50.7202 0.624023H2.78271C1.76289 0.624023 0.938965 1.44795 0.938965 2.46777V39.3428C0.938965 40.3626 1.76289 41.1865 2.78271 41.1865H50.7202C51.74 41.1865 52.564 40.3626 52.564 39.3428V2.46777C52.564 1.44795 51.74 0.624023 50.7202 0.624023ZM48.4155 7.00801V37.0381H5.0874V7.00801L3.49717 5.76924L5.76152 2.85957L8.22754 4.77822H45.2812L47.7472 2.85957L50.0115 5.76924L48.4155 7.00801ZM45.2812 4.77246L26.7515 19.1768L8.22178 4.77246L5.75576 2.85381L3.49141 5.76348L5.08164 7.00225L24.7637 22.3054C25.3297 22.7451 26.0261 22.9838 26.7428 22.9838C27.4596 22.9838 28.1559 22.7451 28.722 22.3054L48.4155 7.00801L50.0058 5.76924L47.7414 2.85957L45.2812 4.77246Z" fill="black"/>
</svg>
